<svg width="940" height="788" xmlns="http://www.w3.org/2000/svg" xml:space="preserve" version="1.1">
 <desc>Created with Fabric.js 3.5.0</desc>

 <g>
  <title>Layer 1</title>
  <g id="457073" transform="matrix(0.8452 0 0 0.8452 470.013 394.013)">
   <g id="svg_2" vector-effect="non-scaling-stroke">
    <g id="svg_3" transform="matrix(1 0 0 1 -450 -450)"/>
    <g id="13947" transform="matrix(0 12.7498 -12.7498 0 0.0021 -0.0012)">
     <path id="svg_5" fill-rule=" nonzero" fill=" #FF731D" stroke-miterlimit="4" stroke-linejoin=" miter" stroke-dashoffset="0" stroke-dasharray=" none" stroke-width="0" stroke-opacity="0" stroke=" rgb(245,245,245)" stroke-linecap=" butt" d="m33.14103,-12.73383l-16.1,0q-2.4,-4.4 -6.6,-6.7a18.503,18.503 0 0 0 -6.115,-2.028a24.125,24.125 0 0 0 -3.685,-0.272a23.368,23.368 0 0 0 -6.363,0.837a19.845,19.845 0 0 0 -4.637,1.963a19.302,19.302 0 0 0 -7.415,7.838a23.01,23.01 0 0 0 -0.085,0.162a23.823,23.823 0 0 0 -2.409,7.71a30.674,30.674 0 0 0 -0.291,4.29q0,7 2.75,12.2q2.75,5.2 7.65,8a21.148,21.148 0 0 0 7.682,2.553a27.193,27.193 0 0 0 3.718,0.247a24.679,24.679 0 0 0 5.807,-0.648a17.715,17.715 0 0 0 7.293,-3.602a18.876,18.876 0 0 0 5.513,-7.814a25.673,25.673 0 0 0 1.187,-4.036l-24,0l0,-10.7l37.8,0l0,12.2q-1.4,7.3 -6,13.5a33.761,33.761 0 0 1 -11.4,9.713a38.989,38.989 0 0 1 -0.45,0.237a33.802,33.802 0 0 1 -12.937,3.618a40.991,40.991 0 0 1 -3.313,0.132a38.576,38.576 0 0 1 -12.14,-1.867a34.903,34.903 0 0 1 -6.11,-2.683q-8.15,-4.55 -12.8,-12.65a35.184,35.184 0 0 1 -4.487,-14.615a43.081,43.081 0 0 1 -0.163,-3.785a39.081,39.081 0 0 1 1.596,-11.332a34.272,34.272 0 0 1 3.054,-7.118q4.65,-8.15 12.8,-12.7a36.22,36.22 0 0 1 16.599,-4.522a43.034,43.034 0 0 1 1.551,-0.028a40.724,40.724 0 0 1 10.945,1.415a33.47,33.47 0 0 1 9.555,4.335q8.7,5.75 12,16.15z" vector-effect="non-scaling-stroke"/>
    </g>
   </g>
  </g>
 </g>
</svg>